<?xml version="1.0" encoding="UTF-8"?>
<svg xmlns="http://www.w3.org/2000/svg" viewBox="0 0 512.31 233">
  <defs>
    <style>
      .cls-1 {
        fill: #fff;
        stroke-width: 0px;
      }
    </style>
  </defs>
  <g id="Layer_3" data-name="Layer 3">
    <g>
      <path class="cls-1" d="m4.96,153.69c.93,51.06,5.8,75.9,14.86,75.9,6.27,0,10.21-14.3,10.21-36.76,0-20.76-2.09-32.34-9.75-53.1C5.89,99.91,2.18,81.53,2.18,50.56,2.18,17.2,9.14,1.2,23.77,1.2q3.71,0,10.91,2.38c2.55.68,3.48,1.02,6.27,1.02-.46,21.44-.7,27.57-.7,37.1s.23,15.32.7,37.44h-2.32c-.7-48.33-5.34-74.54-13.69-74.54-5.34,0-9.28,13.62-9.28,32.34,0,13.62,1.62,26.55,5.34,39.82,1.86,7.49,2.32,8.51,11.61,35.74,8.59,25.19,11.61,41.52,11.61,63.99,0,36.76-8.36,56.5-23.91,56.5-3.71,0-6.04-.34-12.07-2.38-2.79-1.02-3.48-1.02-5.57-1.02.7-22.46.7-28.25.7-37.78,0-8.85,0-14.64-.7-38.12h2.32Z"/>
      <path class="cls-1" d="m50,172.75l-4.87,53.78,6.27.68v3.4c-3.48-.68-4.87-1.02-6.5-1.02s-3.02.34-6.73,1.02v-3.4l4.64-.68L62.99,2.56h2.79l21.59,223.96,4.64.68v3.4c-7.89-.68-10.68-1.02-13.69-1.02s-5.34.34-13.46,1.02v-3.4l6.27-.68-5.11-53.78h-16.02Zm7.89-90.54l-7.66,87.13h15.55l-7.89-87.13Z"/>
      <path class="cls-1" d="m137.27,7.67l-7.66-.68v-3.4c4.87.68,6.73,1.02,8.82,1.02s3.95-.34,8.82-1.02v3.4l-7.66.68v223.96h-5.34L96.42,10.05v216.48l7.89.68v3.4c-5.11-.68-6.96-1.02-9.05-1.02s-3.95.34-8.82,1.02v-3.4l7.66-.68V7.67l-7.66-.68v-3.4c8.12,1.02,9.75,1.02,13,1.02,3.02,0,4.41,0,13-1.02l24.84,155.21V7.67Z"/>
      <path class="cls-1" d="m148.17,153.69c.93,51.06,5.8,75.9,14.86,75.9,6.27,0,10.21-14.3,10.21-36.76,0-20.76-2.09-32.34-9.75-53.1-14.39-39.82-18.1-58.2-18.1-89.18,0-33.36,6.96-49.35,21.59-49.35q3.71,0,10.91,2.38c2.55.68,3.48,1.02,6.27,1.02-.46,21.44-.7,27.57-.7,37.1s.23,15.32.7,37.44h-2.32c-.7-48.33-5.34-74.54-13.69-74.54-5.34,0-9.28,13.62-9.28,32.34,0,13.62,1.62,26.55,5.34,39.82,1.86,7.49,2.32,8.51,11.61,35.74,8.59,25.19,11.61,41.52,11.61,63.99,0,36.76-8.36,56.5-23.91,56.5-3.71,0-6.03-.34-12.07-2.38-2.79-1.02-3.48-1.02-5.57-1.02.7-22.46.7-28.25.7-37.78,0-8.85,0-14.64-.7-38.12h2.32Z"/>
      <path class="cls-1" d="m242.41,153.69c.93,51.06,5.8,75.9,14.85,75.9,6.27,0,10.21-14.3,10.21-36.76,0-20.76-2.09-32.34-9.75-53.1-14.39-39.82-18.1-58.2-18.1-89.18,0-33.36,6.96-49.35,21.59-49.35q3.71,0,10.91,2.38c2.55.68,3.48,1.02,6.27,1.02-.46,21.44-.7,27.57-.7,37.1s.23,15.32.7,37.44h-2.32c-.7-48.33-5.34-74.54-13.7-74.54-5.34,0-9.29,13.62-9.29,32.34,0,13.62,1.62,26.55,5.34,39.82,1.86,7.49,2.32,8.51,11.61,35.74,8.59,25.19,11.61,41.52,11.61,63.99,0,36.76-8.36,56.5-23.91,56.5-3.71,0-6.04-.34-12.07-2.38-2.79-1.02-3.48-1.02-5.57-1.02.7-22.46.7-28.25.7-37.78,0-8.85,0-14.64-.7-38.12h2.32Z"/>
      <path class="cls-1" d="m337.34,115.91c0,75.9-9.75,117.09-27.85,117.09s-28.09-41.52-28.09-115.39S291.15,1.2,309.72,1.2s27.62,40.5,27.62,114.71Zm-39.69,6.81c0,73.18,3.71,106.88,11.61,106.88s11.84-37.44,11.84-117.43c0-44.93-1.16-73.52-3.95-89.52-1.62-10.89-4.88-18.04-7.89-18.04-7.89,0-11.61,36.76-11.61,118.11Z"/>
      <path class="cls-1" d="m361.01,226.53c2.79.34,3.71.34,5.11.34,8.59,0,11.84-7.15,14.16-30.29,1.16-11.23,1.86-27.91,2.09-52.08h2.32c-.46,28.59-.7,37.44-.7,45.61,0,10.55.23,19.06.7,40.5l-15.78-.68-14.16-.34c-4.41,0-8.82.34-16.94,1.02v-3.4l7.66-.68V7.67l-7.66-.68v-3.4c8.59.68,11.61,1.02,15.32,1.02,3.48,0,6.73-.34,15.55-1.02v3.4l-7.66.68v218.86Z"/>
      <path class="cls-1" d="m383.76,3.59c8.12.68,13.23,1.02,19.96,1.02,6.04,0,14.62-.34,26.23-1.02-.7,20.42-.93,28.25-.93,36.76s.23,16,.93,36.76h-2.32c-.46-28.93-1.39-42.55-4.18-57.18-1.86-9.53-4.18-12.93-9.05-12.93-1.39,0-2.32,0-7.43.68v106.88h2.32c7.2,0,10.21-11.23,10.44-39.14h2.32c-.46,22.12-.7,30.63-.7,40.16,0,10.55,0,12.59.7,41.18h-2.32c0-27.91-3.25-39.48-10.44-39.48h-2.32v109.26c2.79.34,3.71.34,5.34.34,11.84,0,15.32-15.32,16.25-70.8h2.32c-.7,19.74-.93,27.23-.93,37.1s.23,17.02.93,37.44l-15.78-.68-14.39-.34c-4.41,0-8.82.34-16.94,1.02v-3.4l7.66-.68V7.67l-7.66-.68v-3.4Z"/>
      <path class="cls-1" d="m454.32,226.53l7.66.68v3.4c-9.05-1.02-11.37-1.02-15.32-1.02-3.71,0-5.8,0-15.55,1.02v-3.4l7.66-.68V7.67l-7.66-.68v-3.4c9.05,1.02,11.37,1.02,15.32,1.02,3.71,0,5.8,0,15.55-1.02v3.4l-7.66.68v218.86Z"/>
      <path class="cls-1" d="m485.65,226.53c2.79.34,3.71.34,5.11.34,8.59,0,11.84-7.15,14.16-30.29,1.16-11.23,1.86-27.91,2.09-52.08h2.32c-.46,28.59-.7,37.44-.7,45.61,0,10.55.23,19.06.7,40.5l-15.78-.68-14.16-.34c-4.41,0-8.82.34-16.94,1.02v-3.4l7.66-.68V7.67l-7.66-.68v-3.4c8.59.68,11.61,1.02,15.32,1.02,3.48,0,6.73-.34,15.55-1.02v3.4l-7.66.68v218.86Z"/>
    </g>
  </g>
  <g id="Layer_4" data-name="Layer 4">
    <polygon class="cls-1" points="313.12 113.5 309.24 124.32 305.36 113.5 309.37 102.73 313.12 113.5"/>
  </g>
</svg>